<mxfile host="app.diagrams.net" modified="2024-06-01T10:35:09.541Z" agent="Mozilla/5.0 (Windows NT 10.0; Win64; x64; rv:123.0) Gecko/20100101 Firefox/123.0" etag="VyNqP6SXjQgACKh-Wi5v" version="24.4.4" type="device">
  <diagram name="Page-1" id="929967ad-93f9-6ef4-fab6-5d389245f69c">
    <mxGraphModel dx="1434" dy="837" grid="1" gridSize="10" guides="1" tooltips="1" connect="1" arrows="1" fold="1" page="1" pageScale="1.5" pageWidth="1169" pageHeight="826" background="none" math="0" shadow="0">
      <root>
        <mxCell id="0" style=";html=1;" />
        <mxCell id="1" style=";html=1;" parent="0" />
        <mxCell id="aJms82pucHbP5OjZi7ao-17" value="" style="rounded=0;whiteSpace=wrap;html=1;fillColor=none;" parent="1" vertex="1">
          <mxGeometry x="220" width="480" height="740" as="geometry" />
        </mxCell>
        <mxCell id="1672d66443f91eb5-13" style="edgeStyle=orthogonalEdgeStyle;rounded=0;html=1;jettySize=auto;orthogonalLoop=1;endArrow=circlePlus;endFill=0;" parent="1" edge="1">
          <mxGeometry relative="1" as="geometry">
            <Array as="points">
              <mxPoint x="477" y="485" />
              <mxPoint x="517" y="485" />
            </Array>
            <mxPoint x="477.0000000000002" y="535" as="sourcePoint" />
          </mxGeometry>
        </mxCell>
        <mxCell id="hsE9dfF4Od-NRktNLgFB-33" value="&lt;font style=&quot;font-size: 22px;&quot;&gt;Добавить камеру&lt;/font&gt;" style="ellipse;whiteSpace=wrap;html=1;" parent="1" vertex="1">
          <mxGeometry x="230" y="630" width="170" height="100" as="geometry" />
        </mxCell>
        <mxCell id="hsE9dfF4Od-NRktNLgFB-34" value="&lt;font style=&quot;font-size: 22px;&quot;&gt;Добавить дрон&lt;/font&gt;" style="ellipse;whiteSpace=wrap;html=1;" parent="1" vertex="1">
          <mxGeometry x="230" y="70" width="170" height="100" as="geometry" />
        </mxCell>
        <mxCell id="hsE9dfF4Od-NRktNLgFB-35" value="&lt;font style=&quot;font-size: 22px;&quot;&gt;Построить маршрут&lt;/font&gt;" style="ellipse;whiteSpace=wrap;html=1;" parent="1" vertex="1">
          <mxGeometry x="520" y="350" width="170" height="100" as="geometry" />
        </mxCell>
        <mxCell id="hsE9dfF4Od-NRktNLgFB-36" value="&lt;font style=&quot;font-size: 22px;&quot;&gt;Изменить камеру&lt;/font&gt;" style="ellipse;whiteSpace=wrap;html=1;" parent="1" vertex="1">
          <mxGeometry x="520" y="520" width="170" height="100" as="geometry" />
        </mxCell>
        <mxCell id="hsE9dfF4Od-NRktNLgFB-37" value="&lt;div&gt;&lt;font style=&quot;font-size: 22px;&quot;&gt;Удалить&lt;/font&gt;&lt;/div&gt;&lt;div&gt;&lt;font style=&quot;font-size: 22px;&quot;&gt;камеру&lt;/font&gt;&lt;/div&gt;" style="ellipse;whiteSpace=wrap;html=1;" parent="1" vertex="1">
          <mxGeometry x="520" y="630" width="170" height="100" as="geometry" />
        </mxCell>
        <mxCell id="hsE9dfF4Od-NRktNLgFB-38" value="" style="endArrow=none;html=1;rounded=0;strokeWidth=1;entryX=0;entryY=0.5;entryDx=0;entryDy=0;" parent="1" target="hsE9dfF4Od-NRktNLgFB-34" edge="1">
          <mxGeometry width="50" height="50" relative="1" as="geometry">
            <mxPoint x="130" y="386" as="sourcePoint" />
            <mxPoint x="-70" y="401" as="targetPoint" />
          </mxGeometry>
        </mxCell>
        <mxCell id="hsE9dfF4Od-NRktNLgFB-39" value="" style="endArrow=none;html=1;rounded=0;strokeWidth=1;entryX=0;entryY=0.5;entryDx=0;entryDy=0;" parent="1" target="hsE9dfF4Od-NRktNLgFB-42" edge="1">
          <mxGeometry width="50" height="50" relative="1" as="geometry">
            <mxPoint x="130" y="411" as="sourcePoint" />
            <mxPoint x="-90" y="401" as="targetPoint" />
          </mxGeometry>
        </mxCell>
        <mxCell id="hsE9dfF4Od-NRktNLgFB-40" value="" style="endArrow=none;html=1;rounded=0;strokeWidth=1;entryX=0;entryY=0.5;entryDx=0;entryDy=0;" parent="1" target="hsE9dfF4Od-NRktNLgFB-33" edge="1">
          <mxGeometry width="50" height="50" relative="1" as="geometry">
            <mxPoint x="130" y="416" as="sourcePoint" />
            <mxPoint x="10" y="791" as="targetPoint" />
          </mxGeometry>
        </mxCell>
        <mxCell id="hsE9dfF4Od-NRktNLgFB-41" value="&lt;font style=&quot;font-size: 17px;&quot;&gt;Настольное приложение для расчета маршрута сельскохозяйственного дрона по имеющимся характеристикам&lt;/font&gt;" style="rounded=0;whiteSpace=wrap;html=1;fillColor=none;" parent="1" vertex="1">
          <mxGeometry x="220" width="320" height="60" as="geometry" />
        </mxCell>
        <mxCell id="hsE9dfF4Od-NRktNLgFB-42" value="&lt;div&gt;&lt;font style=&quot;font-size: 22px;&quot;&gt;Выбрать&lt;/font&gt;&lt;/div&gt;&lt;div&gt;&lt;font style=&quot;font-size: 22px;&quot;&gt;камеру&lt;/font&gt;&lt;/div&gt;" style="ellipse;whiteSpace=wrap;html=1;" parent="1" vertex="1">
          <mxGeometry x="230" y="520" width="170" height="100" as="geometry" />
        </mxCell>
        <mxCell id="hsE9dfF4Od-NRktNLgFB-43" value="" style="endArrow=classic;dashed=1;html=1;rounded=0;entryX=1;entryY=0.5;entryDx=0;entryDy=0;verticalAlign=bottom;strokeWidth=1;startArrow=none;startFill=0;endFill=1;exitX=0;exitY=0.5;exitDx=0;exitDy=0;" parent="1" source="hsE9dfF4Od-NRktNLgFB-36" target="hsE9dfF4Od-NRktNLgFB-42" edge="1">
          <mxGeometry width="50" height="50" relative="1" as="geometry">
            <mxPoint x="431.16999999999996" y="521" as="sourcePoint" />
            <mxPoint x="581.17" y="491" as="targetPoint" />
            <Array as="points" />
          </mxGeometry>
        </mxCell>
        <mxCell id="hsE9dfF4Od-NRktNLgFB-44" value="&lt;font style=&quot;font-size: 16px;&quot;&gt;&amp;lt;&amp;lt;extend&amp;gt;&amp;gt;&lt;/font&gt;" style="edgeLabel;html=1;align=center;verticalAlign=middle;resizable=0;points=[];" parent="hsE9dfF4Od-NRktNLgFB-43" vertex="1" connectable="0">
          <mxGeometry x="0.0236" relative="1" as="geometry">
            <mxPoint as="offset" />
          </mxGeometry>
        </mxCell>
        <mxCell id="hsE9dfF4Od-NRktNLgFB-45" value="" style="endArrow=classic;dashed=1;html=1;rounded=0;entryX=0.998;entryY=0.575;entryDx=0;entryDy=0;verticalAlign=bottom;strokeWidth=1;startArrow=none;startFill=0;endFill=1;exitX=0;exitY=0.5;exitDx=0;exitDy=0;entryPerimeter=0;" parent="1" source="hsE9dfF4Od-NRktNLgFB-37" target="hsE9dfF4Od-NRktNLgFB-42" edge="1">
          <mxGeometry width="50" height="50" relative="1" as="geometry">
            <mxPoint x="581.17" y="571" as="sourcePoint" />
            <mxPoint x="391.16999999999996" y="631" as="targetPoint" />
            <Array as="points" />
          </mxGeometry>
        </mxCell>
        <mxCell id="hsE9dfF4Od-NRktNLgFB-46" value="&lt;font style=&quot;font-size: 16px;&quot;&gt;&amp;lt;&amp;lt;extend&amp;gt;&amp;gt;&lt;/font&gt;" style="edgeLabel;html=1;align=center;verticalAlign=middle;resizable=0;points=[];" parent="hsE9dfF4Od-NRktNLgFB-45" vertex="1" connectable="0">
          <mxGeometry x="0.0236" relative="1" as="geometry">
            <mxPoint as="offset" />
          </mxGeometry>
        </mxCell>
        <mxCell id="hsE9dfF4Od-NRktNLgFB-47" value="" style="endArrow=none;html=1;rounded=0;strokeWidth=1;entryX=0;entryY=0.5;entryDx=0;entryDy=0;" parent="1" target="hsE9dfF4Od-NRktNLgFB-56" edge="1">
          <mxGeometry width="50" height="50" relative="1" as="geometry">
            <mxPoint x="130" y="391" as="sourcePoint" />
            <mxPoint x="150" y="331" as="targetPoint" />
          </mxGeometry>
        </mxCell>
        <mxCell id="hsE9dfF4Od-NRktNLgFB-51" value="" style="endArrow=classic;dashed=1;html=1;rounded=0;verticalAlign=bottom;strokeWidth=1;startArrow=none;startFill=0;endFill=1;exitX=0;exitY=0.5;exitDx=0;exitDy=0;entryX=0.995;entryY=0.584;entryDx=0;entryDy=0;entryPerimeter=0;" parent="1" source="hsE9dfF4Od-NRktNLgFB-35" target="hsE9dfF4Od-NRktNLgFB-56" edge="1">
          <mxGeometry width="50" height="50" relative="1" as="geometry">
            <mxPoint x="216.5" y="701" as="sourcePoint" />
            <mxPoint x="429.9999999999998" y="261.0000000000002" as="targetPoint" />
            <Array as="points" />
          </mxGeometry>
        </mxCell>
        <mxCell id="hsE9dfF4Od-NRktNLgFB-52" value="&lt;font style=&quot;font-size: 16px;&quot;&gt;&amp;lt;&amp;lt;include&amp;gt;&amp;gt;&lt;/font&gt;" style="edgeLabel;html=1;align=center;verticalAlign=middle;resizable=0;points=[];" parent="hsE9dfF4Od-NRktNLgFB-51" vertex="1" connectable="0">
          <mxGeometry x="0.0236" relative="1" as="geometry">
            <mxPoint as="offset" />
          </mxGeometry>
        </mxCell>
        <mxCell id="hsE9dfF4Od-NRktNLgFB-53" value="&lt;font style=&quot;font-size: 22px;&quot;&gt;Пользователь&lt;/font&gt;" style="shape=umlActor;verticalLabelPosition=bottom;verticalAlign=top;html=1;outlineConnect=0;" parent="1" vertex="1">
          <mxGeometry x="50" y="350" width="60" height="105" as="geometry" />
        </mxCell>
        <mxCell id="hsE9dfF4Od-NRktNLgFB-54" value="&lt;font style=&quot;font-size: 22px;&quot;&gt;Удалить дрон&lt;/font&gt;" style="ellipse;whiteSpace=wrap;html=1;" parent="1" vertex="1">
          <mxGeometry x="520" y="70" width="170" height="100" as="geometry" />
        </mxCell>
        <mxCell id="hsE9dfF4Od-NRktNLgFB-55" value="&lt;font style=&quot;font-size: 22px;&quot;&gt;Изменить дрон&lt;/font&gt;" style="ellipse;whiteSpace=wrap;html=1;" parent="1" vertex="1">
          <mxGeometry x="520" y="180" width="170" height="100" as="geometry" />
        </mxCell>
        <mxCell id="hsE9dfF4Od-NRktNLgFB-56" value="&lt;font style=&quot;font-size: 22px;&quot;&gt;Выбрать дрон&lt;/font&gt;" style="ellipse;whiteSpace=wrap;html=1;" parent="1" vertex="1">
          <mxGeometry x="230" y="180" width="170" height="100" as="geometry" />
        </mxCell>
        <mxCell id="hsE9dfF4Od-NRktNLgFB-57" value="" style="endArrow=classic;dashed=1;html=1;rounded=0;entryX=0.995;entryY=0.406;entryDx=0;entryDy=0;verticalAlign=bottom;strokeWidth=1;startArrow=none;startFill=0;endFill=1;exitX=0;exitY=0.5;exitDx=0;exitDy=0;entryPerimeter=0;" parent="1" source="hsE9dfF4Od-NRktNLgFB-54" target="hsE9dfF4Od-NRktNLgFB-56" edge="1">
          <mxGeometry width="50" height="50" relative="1" as="geometry">
            <mxPoint x="431.16999999999996" y="81" as="sourcePoint" />
            <mxPoint x="581.17" y="51" as="targetPoint" />
            <Array as="points" />
          </mxGeometry>
        </mxCell>
        <mxCell id="hsE9dfF4Od-NRktNLgFB-58" value="&lt;font style=&quot;font-size: 16px;&quot;&gt;&amp;lt;&amp;lt;extend&amp;gt;&amp;gt;&lt;/font&gt;" style="edgeLabel;html=1;align=center;verticalAlign=middle;resizable=0;points=[];" parent="hsE9dfF4Od-NRktNLgFB-57" vertex="1" connectable="0">
          <mxGeometry x="0.0236" relative="1" as="geometry">
            <mxPoint as="offset" />
          </mxGeometry>
        </mxCell>
        <mxCell id="hsE9dfF4Od-NRktNLgFB-59" value="" style="endArrow=classic;dashed=1;html=1;rounded=0;entryX=1;entryY=0.5;entryDx=0;entryDy=0;verticalAlign=bottom;strokeWidth=1;startArrow=none;startFill=0;endFill=1;exitX=0;exitY=0.5;exitDx=0;exitDy=0;" parent="1" source="hsE9dfF4Od-NRktNLgFB-55" target="hsE9dfF4Od-NRktNLgFB-56" edge="1">
          <mxGeometry width="50" height="50" relative="1" as="geometry">
            <mxPoint x="581.17" y="131" as="sourcePoint" />
            <mxPoint x="391.16999999999996" y="191" as="targetPoint" />
            <Array as="points" />
          </mxGeometry>
        </mxCell>
        <mxCell id="hsE9dfF4Od-NRktNLgFB-60" value="&lt;font style=&quot;font-size: 16px;&quot;&gt;&amp;lt;&amp;lt;extend&amp;gt;&amp;gt;&lt;/font&gt;" style="edgeLabel;html=1;align=center;verticalAlign=middle;resizable=0;points=[];" parent="hsE9dfF4Od-NRktNLgFB-59" vertex="1" connectable="0">
          <mxGeometry x="0.0236" relative="1" as="geometry">
            <mxPoint as="offset" />
          </mxGeometry>
        </mxCell>
        <mxCell id="hsE9dfF4Od-NRktNLgFB-64" value="&lt;font style=&quot;font-size: 22px;&quot;&gt;Обозначить старт&lt;/font&gt;" style="ellipse;whiteSpace=wrap;html=1;" parent="1" vertex="1">
          <mxGeometry x="230" y="290" width="170" height="100" as="geometry" />
        </mxCell>
        <mxCell id="hsE9dfF4Od-NRktNLgFB-65" value="&lt;div style=&quot;font-size: 22px;&quot;&gt;&lt;font style=&quot;font-size: 22px;&quot;&gt;Выделить область &lt;br&gt;&lt;/font&gt;&lt;/div&gt;&lt;div style=&quot;font-size: 22px;&quot;&gt;&lt;font style=&quot;font-size: 22px;&quot;&gt;съёмки&lt;br&gt;&lt;/font&gt;&lt;/div&gt;" style="ellipse;whiteSpace=wrap;html=1;" parent="1" vertex="1">
          <mxGeometry x="230" y="410" width="170" height="100" as="geometry" />
        </mxCell>
        <mxCell id="hsE9dfF4Od-NRktNLgFB-66" value="" style="endArrow=classic;dashed=1;html=1;rounded=0;verticalAlign=bottom;strokeWidth=1;startArrow=none;startFill=0;endFill=1;exitX=0;exitY=0.5;exitDx=0;exitDy=0;entryX=0.996;entryY=0.415;entryDx=0;entryDy=0;entryPerimeter=0;" parent="1" source="hsE9dfF4Od-NRktNLgFB-35" target="hsE9dfF4Od-NRktNLgFB-42" edge="1">
          <mxGeometry width="50" height="50" relative="1" as="geometry">
            <mxPoint x="620" y="391" as="sourcePoint" />
            <mxPoint x="400" y="570" as="targetPoint" />
            <Array as="points" />
          </mxGeometry>
        </mxCell>
        <mxCell id="hsE9dfF4Od-NRktNLgFB-67" value="&lt;font style=&quot;font-size: 16px;&quot;&gt;&amp;lt;&amp;lt;include&amp;gt;&amp;gt;&lt;/font&gt;" style="edgeLabel;html=1;align=center;verticalAlign=middle;resizable=0;points=[];" parent="hsE9dfF4Od-NRktNLgFB-66" vertex="1" connectable="0">
          <mxGeometry x="0.0236" relative="1" as="geometry">
            <mxPoint as="offset" />
          </mxGeometry>
        </mxCell>
        <mxCell id="hsE9dfF4Od-NRktNLgFB-70" value="" style="endArrow=classic;dashed=1;html=1;rounded=0;verticalAlign=bottom;strokeWidth=1;startArrow=none;startFill=0;endFill=1;entryX=1;entryY=0.5;entryDx=0;entryDy=0;exitX=0;exitY=0.5;exitDx=0;exitDy=0;" parent="1" source="hsE9dfF4Od-NRktNLgFB-35" target="hsE9dfF4Od-NRktNLgFB-65" edge="1">
          <mxGeometry width="50" height="50" relative="1" as="geometry">
            <mxPoint x="830" y="311" as="sourcePoint" />
            <mxPoint x="450" y="631" as="targetPoint" />
            <Array as="points" />
          </mxGeometry>
        </mxCell>
        <mxCell id="hsE9dfF4Od-NRktNLgFB-71" value="&lt;font style=&quot;font-size: 16px;&quot;&gt;&amp;lt;&amp;lt;include&amp;gt;&amp;gt;&lt;/font&gt;" style="edgeLabel;html=1;align=center;verticalAlign=middle;resizable=0;points=[];" parent="hsE9dfF4Od-NRktNLgFB-70" vertex="1" connectable="0">
          <mxGeometry x="0.0236" relative="1" as="geometry">
            <mxPoint as="offset" />
          </mxGeometry>
        </mxCell>
        <mxCell id="hsE9dfF4Od-NRktNLgFB-72" value="" style="endArrow=none;html=1;rounded=0;strokeWidth=1;entryX=0;entryY=0.5;entryDx=0;entryDy=0;" parent="1" target="hsE9dfF4Od-NRktNLgFB-64" edge="1">
          <mxGeometry width="50" height="50" relative="1" as="geometry">
            <mxPoint x="130" y="396" as="sourcePoint" />
            <mxPoint x="140" y="555" as="targetPoint" />
          </mxGeometry>
        </mxCell>
        <mxCell id="hsE9dfF4Od-NRktNLgFB-73" value="" style="endArrow=none;html=1;rounded=0;strokeWidth=1;entryX=0;entryY=0.5;entryDx=0;entryDy=0;" parent="1" target="hsE9dfF4Od-NRktNLgFB-65" edge="1">
          <mxGeometry width="50" height="50" relative="1" as="geometry">
            <mxPoint x="130" y="407" as="sourcePoint" />
            <mxPoint x="390" y="821" as="targetPoint" />
          </mxGeometry>
        </mxCell>
        <mxCell id="hsE9dfF4Od-NRktNLgFB-74" value="" style="endArrow=classic;dashed=1;html=1;rounded=0;verticalAlign=bottom;strokeWidth=1;startArrow=none;startFill=0;endFill=1;entryX=1;entryY=0.5;entryDx=0;entryDy=0;exitX=0;exitY=0.5;exitDx=0;exitDy=0;" parent="1" source="hsE9dfF4Od-NRktNLgFB-35" target="hsE9dfF4Od-NRktNLgFB-64" edge="1">
          <mxGeometry width="50" height="50" relative="1" as="geometry">
            <mxPoint x="510" y="401" as="sourcePoint" />
            <mxPoint x="180" y="201" as="targetPoint" />
            <Array as="points" />
          </mxGeometry>
        </mxCell>
        <mxCell id="hsE9dfF4Od-NRktNLgFB-75" value="&lt;font style=&quot;font-size: 16px;&quot;&gt;&amp;lt;&amp;lt;include&amp;gt;&amp;gt;&lt;/font&gt;" style="edgeLabel;html=1;align=center;verticalAlign=middle;resizable=0;points=[];" parent="hsE9dfF4Od-NRktNLgFB-74" vertex="1" connectable="0">
          <mxGeometry x="0.0236" relative="1" as="geometry">
            <mxPoint as="offset" />
          </mxGeometry>
        </mxCell>
        <mxCell id="hsE9dfF4Od-NRktNLgFB-78" value="" style="endArrow=none;html=1;rounded=0;strokeWidth=1;entryX=0;entryY=0.5;entryDx=0;entryDy=0;" parent="1" target="hsE9dfF4Od-NRktNLgFB-35" edge="1">
          <mxGeometry width="50" height="50" relative="1" as="geometry">
            <mxPoint x="130" y="400" as="sourcePoint" />
            <mxPoint x="471" y="431" as="targetPoint" />
          </mxGeometry>
        </mxCell>
      </root>
    </mxGraphModel>
  </diagram>
</mxfile>
